PathFileType	4	(X/Y/Z)	C:/Users/beibeiliu/ov580/test_trc/capture2\sequence.29_training_dense_right.trc
DataRate	CameraRate	NumFrames	NumMarkers	Units	OrigDataRate	OrigDataStartFrame	OrigNumFrames
120	120	23	19	mm	120	256	340
Frame#	Time	ThumbCMC			ThumbMCP			ThumbIP			ThumbTip			IndexMCP			IndexPIP			IndexTip			MiddleMCP			MiddlePIP			MiddleTip			RingMCP			RingPIP			RingTip			PinkyMCP			PinkyPIP			PinkyTip			BackHand1			BackHand2			BackHand3	
		X0	Y0	Z0	X1	Y1	Z1	X2	Y2	Z2	X3	Y3	Z3	X4	Y4	Z4	X5	Y5	Z5	X6	Y6	Z6	X7	Y7	Z7	X8	Y8	Z8	X9	Y9	Z9	X10	Y10	Z10	X11	Y11	Z11	X12	Y12	Z12	X13	Y13	Z13	X14	Y14	Z14	X15	Y15	Z15	X16	Y16	Z16	X17	Y17	Z17	X18	Y18	Z18	
255	2.125	85.0782	14.9975	48.2062	69.9912	17.4382	24.7016	49.904	23.4574	8.93513	33.9319	29.4083	-4.59033	90.9782	30.3713	-24.1806	98.481	-1.03826	-28.462	101.511	-0.259313	7.75537	111.871	29.9085	-28.1477	117.862	-1.00911	-24.8414	115	-0.691593	10.1115	131.429	35.4719	-25.4929	132.274	1.39882	-24.1787	125.103	2.13418	6.08253	157.237	52.6844	-15.8448	162.513	52.5596	-36.9337	169.905	59.1294	-55.5725	133.146	55.8777	25.7104	134.281	46.9675	58.3941	101.011	44.6778	41.3183	
256	2.13333	86.0859	17.8958	43.7281	71.9568	15.4922	23.5215	53.4391	22.6892	6.59395	40.0119	26.7094	-5.92283	94.9153	26.5352	-26.6083	99.3818	-2.80316	-29.4539	103.375	-2.27117	5.70612	116.202	30.0226	-27.0429	120.4	-3.33756	-24.5456	113.233	-1.49062	12.4305	129.988	29.8456	-29.3426	136.206	0.917024	-24.9099	125.815	-0.46099	6.89312	159.541	49.8776	-18.4379	164.878	48.7053	-38.0165	176.259	55.7024	-51.7048	131.316	54.5351	26.6027	132.912	48.3694	55.3832	105.205	46.6503	43.1073	
257	2.14167	83.841	16.61	47.2992	74.1673	15.1102	24.5755	53.868	19.9246	7.98401	40.1219	26.9122	-8.06908	92.398	23.9878	-26.9416	103.594	-4.32117	-24.9176	104.016	-1.37598	6.18818	113.011	26.7507	-29.0177	118.427	-4.11371	-25.0167	115.028	-1.46579	12.891	131.666	29.3557	-28.2643	134.292	-1.46872	-23.3292	124.942	-0.360946	7.59719	160.181	46.5811	-16.4105	168.253	45.3464	-33.8158	182.182	52.9485	-54.6057	134.372	54.1163	23.5438	135.302	48.9655	54.9021	105.063	45.539	42.2518	
258	2.15	86.2724	15.9959	46.6678	68.9043	15.7746	23.8521	54.4434	20.632	5.87467	39.2284	25.7156	-10.8762	95.5851	26.9913	-26.7045	103.755	-4.67049	-25.54	106.594	-0.760609	4.26536	118.084	27.0142	-28.0899	117.39	-6.82215	-22.5109	114.869	0.152735	13.4118	137.338	27.4218	-29.6345	134.224	-2.77145	-22.755	126.441	3.40252	10.8005	158.151	45.404	-13.9749	172.52	44.8277	-34.8472	181.171	50.8661	-56.236	133.453	55.4622	25.7882	138.711	48.3209	53.6952	102.998	47.3203	40.4593	
259	2.15833	85.5426	18.0124	45.5923	73.6858	16.563	22.0746	56.9803	22.0042	4.31366	42.6092	25.3074	-10.9423	93.2403	26.6211	-28.5245	100.925	-2.06764	-27.581	102.202	1.17027	6.26531	119.064	26.1822	-30.1287	116.587	-3.63035	-23.9486	117.992	-0.0257008	11.6732	133.393	31.4925	-27.1222	136.095	1.59722	-24.7626	125.193	2.20716	7.62236	162.436	48.6301	-16.2901	171.393	46.6707	-37.9706	180.875	51.7863	-54.8356	136.477	57.2449	23.7606	139.76	47.0819	56.7788	102.235	45.6249	42.4924	
260	2.16667	84.8508	18.0439	46.1874	74.2362	16.402	24.944	55.1194	23.7452	4.88654	40.6136	28.5898	-11.7272	97.4635	31.2823	-28.9549	103.96	3.7953	-31.0675	102.903	3.72772	4.09517	117.484	33.5269	-26.9443	119.165	0.303466	-26.7261	115.084	2.49478	10.6254	133.842	32.619	-27.1769	132.954	2.09314	-24.0168	125.708	3.8077	9.57634	162.4	50.7526	-16.6263	170.266	48.507	-34.7998	180.865	51.9965	-55.2369	137.456	55.464	28.0048	137.536	47.4836	57.1743	105.589	49.9753	39.4987	
261	2.175	87.875	20.664	46.0322	73.2571	21.3084	20.779	58.1469	29.3922	-0.620805	46.94	35.0141	-17.7912	95.8885	36.9261	-27.5331	98.5911	7.7901	-34.6814	104.779	4.05136	0.0240253	115.714	36.2802	-30.2407	121.203	5.19807	-27.5314	113.785	6.16209	10.2151	135.475	36.3775	-28.8014	136.856	7.21967	-27.1977	125.177	4.89369	7.81254	159.126	52.5335	-12.0453	170.812	53.1357	-34.4216	177.784	57.5499	-59.408	136.959	59.4032	26.7616	135.09	48.7886	56.6519	105.305	49.6805	41.6644	
262	2.18333	85.7325	23.1206	42.5025	73.2669	19.087	22.7916	55.7794	27.6744	2.44497	46.1092	34.1903	-16.7896	94.7275	38.068	-29.8511	103.19	11.874	-34.4811	107.13	4.46561	-1.35025	118.67	40.1293	-29.8232	121.387	7.36187	-29.1745	117.523	6.20483	5.65184	135.289	43.9937	-27.4451	134.493	12.0506	-31.0401	129.372	3.25564	2.27261	159.49	57.6396	-13.5162	168.315	60.002	-32.7843	178.845	65.035	-52.6189	138.528	60.1793	29.9547	137.014	53.1859	57.3205	105.093	53.9202	39.6112	
263	2.19167	85.8994	23.0675	40.6339	72.3991	20.9508	20.4895	56.7989	29.9319	-2.61115	44.5402	34.0687	-18.1436	93.1052	40.1824	-29.8513	99.5819	10.9346	-36.128	106.269	2.0959	-6.10217	116.903	45.3143	-29.0399	121.42	14.4552	-35.0335	115.822	4.35915	1.52951	133.447	52.1483	-29.5774	139.741	22.378	-40.7739	134.077	2.34508	-14.3505	158.34	62.8466	-10.1649	167.576	67.151	-31.5619	176.656	77.6453	-49.8533	133.599	62.4161	29.5704	134.215	53.9342	58.0355	103.258	50.4826	41.8953	
264	2.2	83.3272	19.5941	44.0887	73.0137	18.5923	21.1778	55.9033	27.8119	-3.68032	47.8082	31.2083	-20.1112	93.4849	39.6761	-31.0269	99.1285	12.7615	-37.6722	109.251	3.75471	-7.43295	115.484	45.8059	-31.5893	122.57	14.7842	-37.6516	120.323	4.00464	-0.196682	135.67	59.3103	-28.3351	136.75	34.4262	-49.6985	135.44	2.65701	-33.076	154.776	64.8771	-10.7744	165.192	72.0558	-30.4111	175.295	83.7799	-51.5362	135.093	62.7967	29.8731	132.127	53.7226	54.4755	102.03	50.7168	40.9358	
265	2.20833	86.5161	22.6456	39.8591	70.6035	20.1278	18.1636	54.1501	26.773	-4.82278	42.9585	30.7267	-23.4222	93.9148	41.2798	-30.9488	101.416	13.1531	-39.8219	108.839	2.44737	-7.20185	113.551	44.9237	-35.4372	120.666	16.2695	-39.988	124.016	3.09754	-5.50091	132.523	61.6729	-30.4406	140.278	43.5009	-56.7122	138.539	14.8846	-58.7919	158.663	66.7942	-12.5889	164.073	70.7681	-27.7883	178.706	83.9199	-46.9687	133.574	63.6067	23.7227	132.235	53.8157	57.3086	100.338	52.0019	39.3931	
266	2.21667	82.7427	20.9964	39.5785	72.1966	17.5567	18.9086	58.5598	24.434	-2.75272	42.5803	28.0291	-23.603	93.0311	42.8856	-28.131	100.745	11.1732	-38.9937	110.509	2.43133	-9.77642	113.932	45.0077	-34.8038	120.025	14.6652	-41.39	120.309	-1.09028	-9.38956	129.359	62.3492	-29.8959	140.651	52.2364	-54.1236	140.795	25.1147	-73.1469	153.629	63.5796	-10.8593	168.034	69.8689	-27.4744	174.242	86.2884	-44.555	132.119	63.7578	26.7641	132.911	53.5603	52.3256	102.914	49.845	40.0289	
267	2.225	87.4004	18.6178	43.3158	71.8417	17.2496	18.9489	56.8173	21.9603	-2.43832	46.5614	25.7755	-22.6588	87.4531	38.9729	-27.9266	101.545	14.6062	-40.3969	110.368	2.27965	-6.92292	109.86	44.5064	-33.5578	120.306	15.5281	-41.3624	122.386	-2.46745	-11.3079	130.352	60.96	-30.1683	134.054	51.2474	-55.9684	137.845	32.9061	-80.4937	154.291	62.256	-12.0086	166.278	67.319	-26.8312	176.223	84.4596	-43.3557	131.609	63.8383	24.6296	132.199	54.9098	54.1923	100.39	50.6827	37.501	
268	2.23333	84.2107	17.6607	45.5605	68.045	15.1151	19.5988	57.2183	18.8982	0.51613	43.6571	25.338	-22.6446	90.9064	39.6091	-31.0693	97.3203	10.8725	-39.1903	107.604	-0.495255	-10.6052	111.378	45.337	-32.9439	116.061	17.3431	-43.3253	124.26	-1.95483	-9.49597	128.421	60.0386	-30.7479	132.437	51.8264	-55.7202	135.619	38.3071	-79.1797	156.471	61.9176	-11.3613	166.155	69.1561	-30.3137	178.171	84.4047	-40.8462	130.364	61.5406	24.7279	135.33	51.3575	56.0556	99.834	47.8803	43.2031	
269	2.24167	87.4343	19.0384	42.4746	71.2075	15.9999	20.3293	55.8975	18.9908	-0.841143	45.5695	23.5914	-21.4034	86.772	38.8214	-27.4175	99.5473	11.4506	-38.9574	110.353	0.606152	-12.1756	107.812	46.1929	-30.2674	119.391	15.5314	-43.0692	124.004	-2.05409	-9.99731	130.312	60.3251	-26.4829	132.327	53.9493	-52.5067	134.529	40.9785	-77.3314	158.366	61.8675	-11.0158	166.236	67.8791	-29.2626	178.102	82.9074	-42.2124	130.618	62.0426	26.0395	132.871	53.5753	53.98	99.6945	49.2576	41.9043	
270	2.25	81.9331	18.9742	43.7945	68.2213	13.5123	22.7245	58.2035	17.8917	1.36306	48.5821	23.3506	-21.1804	89.3362	40.3312	-27.9219	99.7599	12.1913	-38.8149	109.505	-0.0722302	-12.0316	106.899	45.5943	-31.5119	117.041	17.3983	-43.9553	118.052	-3.64512	-10.2945	128.915	59.2353	-28.8814	130.182	52.0265	-56.9911	132.991	39.7526	-82.0902	155.758	61.4606	-9.67824	165.661	67.2585	-27.1583	172.277	82.8871	-43.6886	130.757	58.3427	28.9772	130.816	51.7976	57.899	101.214	50.1599	44.8497	
271	2.25833	83.0298	17.6258	44.1274	67.6918	13.2864	21.3607	53.796	16.8723	0.614377	46.2717	24.0913	-21.4792	87.7946	38.9832	-26.6608	96.6648	12.1379	-39.7241	109.029	0.608675	-8.1368	108.102	45.2719	-30.9905	117.647	17.0866	-44.338	121.659	-2.21541	-13.2127	128.669	59.2507	-26.896	134.933	52.9678	-55.7642	133.97	41.9152	-80.2427	153.119	61.4115	-11.0933	165.186	69.7197	-30.2953	170.96	85.0412	-41.7325	128.472	61.7639	25.5317	136.048	50.1768	57.5953	99.3506	50.1125	43.3335	
272	2.26667	83.7672	19.2464	41.1749	71.1539	15.275	19.6593	57.0395	20.3712	-2.29349	46.4506	22.4451	-20.062	85.9856	39.0102	-25.7699	98.2137	12.9902	-40.5288	107.831	-1.39592	-12.6935	111.441	45.3999	-33.8318	117.679	14.5124	-43.1441	120.436	-2.39395	-7.88119	126.915	58.8068	-26.7042	134.475	53.1182	-57.2587	133.693	41.6592	-78.8051	155.837	62.7415	-14.0844	165.904	69.8619	-30.135	175.066	85.4652	-43.0332	129.29	59.0356	25.5292	133.038	53.3247	55.062	104.372	50.4552	42.0962	
273	2.275	83.8251	18.4351	43.675	72.0402	16.3802	18.236	54.7439	16.6201	0.0713881	42.9372	22.1761	-20.9403	87.5264	40.5165	-26.6145	95.4452	13.1515	-41.3699	108.636	0.264286	-12.8227	111.144	46.5389	-31.5818	117.333	13.2848	-42.4266	120.893	-2.72102	-12.2694	129.863	58.2184	-30.568	134.041	52.0563	-55.7889	131.795	40.444	-81.9812	156.485	60.9018	-11.2846	161.126	68.0804	-28.8112	171.901	82.9655	-39.9768	128.149	59.4712	29.2849	132.5	51.1936	52.6016	102.31	51.0815	38.2849	
274	2.28333	85.6212	18.2096	45.2066	72.3033	13.7668	22.2169	52.8297	18.6543	-3.1804	45.8469	21.6032	-22.2789	85.7522	38.451	-29.5867	96.9258	13.5595	-41.0829	105.128	-2.89237	-13.2301	108.073	43.7395	-34.3774	117.253	14.1764	-42.6121	118.739	-4.69647	-11.6434	130.11	59.7162	-32.7888	130.528	53.5343	-52.7949	134.715	41.9239	-81.4797	156.84	60.5079	-10.4897	164.192	68.9609	-28.9937	174.844	82.742	-40.965	127.886	61.4399	27.6077	135.825	52.7925	58.008	103.602	50.4789	39.2579	
275	2.29167	85.1421	19.3923	43.1652	67.9638	14.393	19.9676	57.3967	19.573	-2.15704	43.8637	21.7387	-20.9384	87.9929	41.8906	-26.2734	94.7344	12.9627	-41.6615	105.044	-2.51608	-11.2995	111.058	46.7266	-32.7324	116.05	15.6579	-44.1015	121.419	-4.06701	-17.453	130.35	60.0225	-26.7156	134.597	53.5877	-54.1898	132.759	43.0523	-77.98	156.249	62.7897	-14.2954	160.791	68.6517	-31.6601	172.032	83.4754	-41.1228	131.722	61.4877	23.5294	131.65	52.9369	56.0839	104.112	50.0383	40.9431	
276	2.3	85.3818	18.7873	45.5898	67.8966	13.8645	21.9592	52.0489	17.2229	0.674001	42.0134	21.7098	-20.4284	86.3955	43.4523	-26.172	96.3311	18.2068	-44.2698	104.839	-2.96348	-15.9836	106.85	48.5057	-30.3844	116.235	19.1109	-48.0646	123.429	-5.01737	-26.1677	127.658	60.0127	-31.653	131.476	54.4042	-56.9379	134.415	45.5299	-77.8179	151.651	63.1466	-14.7537	160.155	69.0784	-32.567	172.249	84.5389	-42.0789	128.457	60.921	23.7048	135.073	52.2355	56.4048	103.091	51.3283	39.3201	
277	2.30833	85.6569	21.7061	40.6604	70.7356	16.8884	20.0878	53.1178	19.2833	-1.88155	46.5592	20.6236	-18.8811	88.1356	44.2357	-29.3716	93.0092	20.32	-46.7427	107.674	-2.28118	-21.275	109.481	53.3464	-31.8489	115.064	30.3949	-54.0509	124.28	-5.1347	-38.0037	127.047	60.9145	-30.364	134.257	58.3584	-52.9373	132.317	48.3392	-81.7747	154.099	61.0225	-12.5402	165.275	68.8554	-31.6542	171.599	82.8721	-46.4991	129.965	61.4285	25.0706	132.219	53.7124	57.1851	98.2421	51.7065	40.3031	
